<svg width="34" height="34" viewBox="0 0 34 34" fill="none" xmlns="http://www.w3.org/2000/svg">
                            <path d="M21.8203 30.1132C21.5277 30.1132 21.235 30.0029 21.0105 29.7824C20.5546 29.3347 20.5477 28.6025 20.9955 28.1465C23.6481 25.4423 25.5357 22.2834 26.6055 18.7571C26.7906 18.1461 27.437 17.8004 28.0481 17.9855C28.6592 18.1706 29.0049 18.817 28.8198 19.4281C27.6412 23.3137 25.5643 26.7924 22.6464 29.7661C22.4191 29.9975 22.1197 30.1132 21.8203 30.1132Z" fill="#323232"></path>
                            <path d="M15.0249 34C14.6302 34 14.2369 33.9428 13.8545 33.8272C11.5068 33.1167 9.33604 31.7598 7.40072 29.7932C7.3912 29.785 7.38303 29.7755 7.37351 29.7674C4.22012 26.5527 2.05207 22.7542 0.930627 18.4753C-0.0356687 14.787 -0.0479172 11.4105 0.0282977 9.1907C0.0282977 9.17164 0.0296582 9.15395 0.0310192 9.1349C0.0909023 8.00664 0.793168 7.07029 1.8316 6.73957C6.512 5.25066 9.85593 3.46914 13.3741 0.587943C14.3308 -0.195981 15.719 -0.195981 16.6744 0.587943C20.1912 3.46914 23.5351 5.25066 28.2169 6.73957C29.3098 7.08662 30.0515 8.12369 30.0202 9.26147C30.0025 9.89977 29.469 10.4033 28.8307 10.3856C28.1924 10.3679 27.6888 9.8358 27.7065 9.19614C27.7093 9.08454 27.6317 8.9811 27.516 8.94436C22.5348 7.36018 18.9691 5.45753 15.2073 2.37763C15.1025 2.29189 14.9446 2.29189 14.8398 2.37763C11.0795 5.45753 7.51369 7.36018 2.53114 8.94436C2.3964 8.98655 2.34332 9.14578 2.33924 9.26827C2.33924 9.28324 2.33788 9.29685 2.33652 9.31182C2.17048 14.3093 2.69173 21.675 8.99715 28.1206C9.00668 28.1287 9.01485 28.1383 9.02301 28.1464C10.6889 29.8463 12.5384 31.0126 14.52 31.6115C14.848 31.7108 15.1964 31.7108 15.5258 31.6115C17.4897 31.0181 19.3243 29.8653 20.9806 28.1886C21.1915 27.9504 21.5005 27.7994 21.8448 27.7994C22.3103 27.7994 22.7322 28.0784 22.9132 28.5084C23.0942 28.9385 23.0003 29.4339 22.6736 29.766C20.7315 31.7476 18.5526 33.1126 16.194 33.8258C15.8129 33.9415 15.4196 33.9986 15.0249 34Z" fill="#323232"></path>
                            <path d="M15.2404 25.0267C14.8892 25.0267 14.5408 24.8675 14.3135 24.564L9.02478 17.5127C8.64098 17.001 8.74442 16.2769 9.25615 15.8931C9.76651 15.5094 10.4919 15.6128 10.8757 16.1245L15.4745 22.2557L31.8375 10.1362C32.3506 9.75649 33.076 9.86401 33.4557 10.3771C33.8354 10.8902 33.7279 11.6156 33.2148 11.9953L15.9277 24.7994C15.7208 24.9532 15.4799 25.0267 15.2404 25.0267Z" fill="#FF003C"></path>
                        </svg>