<svg width="20" height="20" viewBox="0 0 20 20" fill="none" xmlns="http://www.w3.org/2000/svg">
<path fill-rule="evenodd" clip-rule="evenodd" d="M9.99973 3.125C9.72346 3.125 9.45851 3.23475 9.26316 3.4301C9.0704 3.62286 8.96099 3.8834 8.95812 4.1557C8.9602 4.27817 8.92603 4.39845 8.86114 4.50112C8.81418 4.57542 8.75113 4.6405 8.67409 4.69052C8.6469 4.70825 8.61825 4.72393 8.58835 4.73732C7.73901 5.14156 7.01491 5.76831 6.49305 6.5511C5.9714 7.33359 5.67138 8.24264 5.62473 9.18174V11.6667C5.62473 11.6918 5.62322 11.7169 5.6202 11.7418C5.54573 12.357 5.32785 12.9462 4.98409 13.4618C4.96618 13.4887 4.94795 13.5153 4.92941 13.5417H15.0701C15.0515 13.5153 15.0333 13.4887 15.0154 13.4618C14.6716 12.9462 14.4537 12.357 14.3793 11.7418C14.3762 11.7169 14.3747 11.6918 14.3747 11.6667V9.18174C14.3281 8.24264 14.0281 7.33359 13.5064 6.5511C12.9821 5.76467 12.2537 5.13572 11.3992 4.73168C11.1807 4.62837 11.0414 4.40835 11.0414 4.16667C11.0414 3.8904 10.9317 3.62545 10.7363 3.4301C10.541 3.23475 10.276 3.125 9.99973 3.125ZM7.74348 3.7653C7.82508 3.30659 8.04532 2.88017 8.37928 2.54621C8.80905 2.11644 9.39194 1.875 9.99973 1.875C10.6075 1.875 11.1904 2.11644 11.6202 2.54621C11.9541 2.88017 12.1744 3.30659 12.256 3.7653C13.1766 4.26544 13.9633 4.98302 14.5465 5.85773C15.1966 6.83291 15.5691 7.96663 15.624 9.13736C15.6245 9.14712 15.6247 9.15689 15.6247 9.16667V11.627C15.6796 12.0351 15.8268 12.4255 16.0554 12.7684C16.2906 13.1212 16.6054 13.4139 16.9744 13.6228C17.2214 13.7627 17.3431 14.0514 17.2708 14.3259C17.1985 14.6004 16.9502 14.7917 16.6664 14.7917H3.33307C3.04922 14.7917 2.80101 14.6004 2.72869 14.3259C2.65637 14.0514 2.7781 13.7627 3.02509 13.6228C3.39406 13.4139 3.70882 13.1212 3.94402 12.7684C4.17262 12.4255 4.31986 12.0351 4.37473 11.627V9.16667C4.37473 9.15689 4.37496 9.14712 4.37542 9.13736C4.43037 7.96663 4.80287 6.83291 5.45299 5.85773C6.03613 4.98302 6.82291 4.26544 7.74348 3.7653Z" fill="#555F75"/>
<path fill-rule="evenodd" clip-rule="evenodd" d="M7.49973 13.5417C7.84491 13.5417 8.12473 13.8215 8.12473 14.1667V15C8.12473 15.4973 8.32228 15.9742 8.67391 16.3258C9.02554 16.6775 9.50245 16.875 9.99973 16.875C10.497 16.875 10.9739 16.6775 11.3256 16.3258C11.6772 15.9742 11.8747 15.4973 11.8747 15V14.1667C11.8747 13.8215 12.1546 13.5417 12.4997 13.5417C12.8449 13.5417 13.1247 13.8215 13.1247 14.1667V15C13.1247 15.8288 12.7955 16.6237 12.2094 17.2097C11.6234 17.7958 10.8285 18.125 9.99973 18.125C9.17093 18.125 8.37607 17.7958 7.79002 17.2097C7.20397 16.6237 6.87473 15.8288 6.87473 15V14.1667C6.87473 13.8215 7.15455 13.5417 7.49973 13.5417Z" fill="#555F75"/>
</svg>
